Coordinates
version=1
nRows=65
nColumns=12
inDegrees=yes

Units are S.I. units (second, meters, Newtons, ...)
Angles are in degrees

endheader
time	SC_y	SC_z	SC_x	AC_y	AC_z	AC_x	GH_y	GH_z	GH_yy	EL_x	PS_y
       0.0               -58.0          31.53          2.755          65.87         -11.53           7.74         -105.6          78.04          20.19          107.4          139.5
   0.03941              -57.99          31.53          2.759          65.87         -11.53          7.739         -105.6          78.03          20.19          107.4          139.5
   0.07881              -57.99          31.53          2.762          65.87         -11.53          7.737         -105.6          78.02           20.2          107.4          139.5
    0.1182              -57.98          31.52          2.766          65.86         -11.53          7.736         -105.6          78.01           20.2          107.4          139.5
    0.1576              -57.97          31.52           2.77          65.86         -11.53          7.734         -105.6           78.0          20.21          107.4          139.4
     0.197              -57.97          31.51          2.775          65.85         -11.53          7.733         -105.6          77.99          20.21          107.4          139.4
    0.2364              -57.96          31.51          2.779          65.85         -11.53          7.731         -105.7          77.98          20.22          107.4          139.4
    0.2758              -57.95           31.5          2.784          65.84         -11.54          7.729         -105.7          77.97          20.22          107.4          139.4
    0.3153              -57.94           31.5          2.789          65.84         -11.54          7.727         -105.7          77.95          20.23          107.4          139.4
    0.3547              -57.93          31.49          2.795          65.83         -11.54          7.725         -105.7          77.94          20.23          107.3          139.3
    0.3941              -57.92          31.48          2.801          65.82         -11.54          7.723         -105.7          77.92          20.24          107.3          139.3
    0.4335              -57.91          31.47          2.808          65.81         -11.54           7.72         -105.7          77.91          20.25          107.3          139.3
    0.4729               -57.9          31.47          2.815          65.81         -11.55          7.718         -105.8          77.89          20.26          107.3          139.2
    0.5123              -57.89          31.46          2.823           65.8         -11.55          7.715         -105.8          77.87          20.26          107.3          139.2
    0.5517              -57.87          31.45          2.831          65.79         -11.55          7.712         -105.8          77.85          20.27          107.3          139.1
    0.5911              -57.86          31.44           2.84          65.78         -11.55          7.708         -105.8          77.82          20.28          107.2          139.1
    0.6305              -57.84          31.43           2.85          65.77         -11.56          7.705         -105.9           77.8          20.29          107.2          139.1
    0.6699              -57.82          31.41           2.86          65.76         -11.56          7.701         -105.9          77.77          20.31          107.2          139.0
    0.7093               -57.8           31.4          2.872          65.74         -11.56          7.696         -105.9          77.74          20.32          107.2          138.9
    0.7487              -57.78          31.39          2.885          65.73         -11.57          7.692         -106.0          77.71          20.33          107.1          138.9
    0.7881              -57.76          31.37          2.898          65.71         -11.57          7.686         -106.0          77.67          20.35          107.1          138.8
    0.8275              -57.73          31.35          2.914          65.69         -11.58          7.681         -106.0          77.64          20.36          107.1          138.7
    0.8669              -57.71          31.33          2.931          65.68         -11.58          7.674         -106.1          77.59          20.38          107.0          138.7
    0.9063              -57.67          31.31           2.95          65.65         -11.59          7.667         -106.2          77.54           20.4          107.0          138.6
    0.9458              -57.64          31.29          2.971          65.63         -11.59          7.659         -106.2          77.49          20.43          106.9          138.5
    0.9852               -57.6          31.26          2.994           65.6          -11.6          7.651         -106.3          77.43          20.45          106.9          138.3
     1.025              -57.56          31.23           3.02          65.57         -11.61          7.641         -106.4          77.36          20.48          106.8          138.2
     1.064              -57.51          31.19          3.049          65.54         -11.62           7.63         -106.4          77.29          20.51          106.7          138.1
     1.103              -57.45          31.16          3.083           65.5         -11.63          7.617         -106.5           77.2          20.55          106.7          137.9
     1.143              -57.39          31.11           3.12          65.46         -11.64          7.603         -106.6          77.11          20.59          106.6          137.7
     1.182              -57.32          31.06          3.163          65.41         -11.65          7.587         -106.8           77.0          20.64          106.5          137.5
     1.222              -57.24          31.01          3.213          65.36         -11.67          7.569         -106.9          76.87          20.69          106.4          137.3
     1.261              -57.14          30.94           3.27          65.29         -11.69          7.547         -107.1          76.72          20.75          106.2          137.0
       1.3              -57.03          30.86          3.336          65.22         -11.71          7.522         -107.3          76.56          20.83          106.1          136.7
      1.34               -56.9          30.77          3.414          65.13         -11.73          7.493         -107.5          76.36          20.91          105.9          136.3
     1.379              -56.75          30.67          3.505          65.03         -11.76          7.459         -107.8          76.12          21.01          105.7          135.8
     1.419              -56.57          30.54          3.614           64.9         -11.79          7.418         -108.1          75.85          21.13          105.4          135.3
     1.458              -56.35          30.39          3.744          64.76         -11.83           7.37         -108.4          75.51          21.27          105.1          134.6
     1.497              -56.09          30.21          3.901          64.58         -11.88          7.311         -108.9          75.11          21.44          104.7          133.9
     1.537              -55.77          29.98          4.094          64.36         -11.94          7.238         -109.5          74.62          21.65          104.3          132.9
     1.576              -55.37          29.71          4.331          64.09         -12.01          7.149         -110.1          74.01          21.91          103.7          131.7
     1.616              -54.88          29.37          4.628          63.76          -12.1          7.038         -111.0          73.25          22.24          103.0          130.3
     1.655              -54.26          28.93          5.001          63.34         -12.22          6.898         -112.1           72.3          22.64          102.2          128.4
     1.694              -53.46          28.38          5.475           62.8         -12.36          6.721         -113.4          71.09          23.16          101.1          126.1
     1.734              -52.45          27.68          6.082          62.11         -12.55          6.493         -115.2          69.53          23.83          99.64          123.1
     1.773              -51.15          26.78          6.861          61.23         -12.79          6.201         -117.4          67.54          24.68          97.82          119.3
     1.813               -49.5          25.63          7.856          60.11          -13.1          5.828         -120.3           65.0          25.76          95.49          114.3
     1.852              -47.41          24.18          9.108          58.69         -13.48          5.359         -123.9           61.8          27.13          92.55          108.2
     1.892              -44.87          22.41          10.63          56.97         -13.95          4.788         -128.3           57.9           28.8          88.98          100.6
     1.931              -41.92          20.36           12.4          54.97         -14.49          4.125         -133.4          53.38          30.73          84.84          91.91
      1.97              -38.73          18.15          14.31          52.81         -15.08          3.408         -138.9          48.48          32.82          80.36          82.47
      2.01              -35.54          15.93          16.23          50.64         -15.67          2.691         -144.5          43.59          34.91          75.88          73.02
     2.049               -32.6          13.88           18.0          48.64         -16.21          2.028         -149.6          39.07          36.84          71.74           64.3
     2.089              -30.05          12.11          19.52          46.92         -16.68          1.457         -154.0          35.17          38.51          68.17          56.77
     2.128              -27.97          10.67          20.77          45.51         -17.07         0.9877         -157.6          31.97          39.88          65.24           50.6
     2.167              -26.31          9.513          21.77          44.38         -17.37         0.6147         -160.4          29.42          40.97          62.91          45.68
     2.207              -25.01           8.61          22.55           43.5         -17.61         0.3227         -162.7          27.43          41.82          61.08          41.84
     2.246               -24.0          7.907          23.15          42.81          -17.8        0.09515         -164.4          25.88          42.48          59.66          38.84
     2.286              -23.21          7.358          23.63          42.28         -17.94       -0.08262         -165.8          24.66           43.0          58.55           36.5
     2.325              -22.59          6.925           24.0          41.86         -18.06        -0.2225         -166.9          23.71          43.41          57.68          34.66
     2.364              -22.09          6.582           24.3          41.52         -18.15        -0.3335         -167.7          22.95          43.73          56.98           33.2
     2.404               -21.7          6.307          24.53          41.25         -18.22        -0.4225         -168.4          22.35          43.99          56.43          32.03
     2.443              -21.38          6.084          24.73          41.03         -18.28        -0.4946         -169.0          21.85           44.2          55.98          31.08
     2.483              -21.11          5.902          24.88          40.86         -18.33        -0.5537         -169.4          21.45          44.37          55.61           30.3
     2.522               -20.9          5.751          25.01          40.71         -18.37        -0.6025         -169.8          21.12          44.51           55.3          29.66
